<?xml version="1.0" standalone="no"?>
<!DOCTYPE svg PUBLIC "-//W3C//DTD SVG 20010904//EN"
 "http://www.w3.org/TR/2001/REC-SVG-20010904/DTD/svg10.dtd">
<svg version="1.0" xmlns="http://www.w3.org/2000/svg"
 width="20.000000pt" height="20.000000pt" viewBox="0 0 20.000000 20.000000"
 preserveAspectRatio="xMidYMid meet">
<metadata>
Created by potrace 1.16, written by Peter Selinger 2001-2019
</metadata>
<g transform="translate(0.000000,20.000000) scale(0.002174,-0.002222)"
fill="#000000" stroke="none">
<path d="M4135 8663 c-313 -41 -783 -169 -1022 -279 -17 -7 -34 -14 -37 -14
-7 0 -169 -74 -201 -92 -11 -6 -58 -31 -105 -55 -89 -46 -122 -65 -130 -73 -3
-3 -23 -14 -45 -25 -22 -11 -42 -23 -45 -26 -3 -3 -9 -8 -15 -10 -20 -8 -260
-173 -263 -181 -2 -4 -8 -8 -13 -8 -5 0 -17 -8 -27 -17 -11 -10 -32 -27 -48
-38 -15 -11 -35 -27 -44 -36 -9 -8 -26 -22 -37 -30 -31 -21 -150 -126 -209
-184 -28 -27 -71 -69 -95 -92 -71 -67 -162 -168 -247 -273 -29 -36 -61 -74
-70 -85 -10 -11 -29 -36 -43 -55 -13 -19 -26 -37 -29 -40 -33 -33 -25 -36 19
-9 l52 33 44 -45 c42 -42 82 -88 363 -411 70 -80 128 -145 130 -144 2 3 -42
116 -77 196 -17 41 -198 513 -205 535 -5 17 20 36 181 133 122 74 189 110 196
103 5 -5 22 -38 37 -73 14 -35 49 -98 78 -141 39 -59 52 -90 57 -131 4 -30 4
-59 1 -65 -9 -13 25 -79 70 -138 23 -29 33 -52 29 -64 -4 -11 3 -30 16 -49 14
-18 23 -46 24 -73 2 -48 22 -91 113 -252 68 -121 111 -252 88 -270 -14 -11 0
-47 27 -68 8 -7 20 -30 27 -52 7 -22 23 -64 36 -94 l24 -53 46 53 c26 30 96
102 155 160 l109 106 -36 46 c-27 34 -35 53 -32 72 5 21 -2 30 -41 55 -55 36
-114 126 -156 240 -16 41 -47 107 -70 145 -24 39 -81 134 -129 213 -47 78 -86
145 -86 148 0 3 -17 28 -38 57 -21 29 -56 86 -78 127 -21 41 -45 81 -52 88 -6
7 -12 19 -12 27 0 7 -6 15 -14 18 -20 8 -37 63 -23 75 45 36 432 262 442 258
7 -2 35 -42 62 -88 188 -317 373 -612 451 -719 50 -69 97 -143 105 -165 7 -21
30 -65 50 -96 30 -47 43 -58 72 -64 32 -6 35 -9 35 -43 0 -41 16 -72 28 -55 4
6 35 26 69 43 l62 32 -21 35 c-11 20 -18 45 -16 58 4 21 -1 27 -36 41 -34 13
-48 28 -83 89 -24 40 -68 138 -98 217 -47 123 -61 149 -95 179 -35 31 -43 48
-49 103 -1 4 -9 7 -19 7 -20 0 -42 38 -42 72 0 22 -60 138 -72 138 -3 0 -20
11 -36 25 -20 17 -39 51 -58 103 -15 42 -47 109 -70 147 -27 43 -39 74 -34 79
24 24 375 233 384 229 6 -2 69 -99 139 -216 213 -354 300 -493 292 -472 -3 11
-9 34 -12 50 -3 17 -11 44 -18 60 -7 17 -37 107 -65 200 -29 94 -74 242 -101
329 -27 88 -49 163 -49 167 0 4 21 19 48 35 26 15 121 72 211 127 157 96 165
100 178 81 45 -62 169 -257 190 -299 50 -99 100 -173 219 -325 152 -195 246
-331 240 -346 -7 -19 76 -137 109 -154 37 -19 45 -28 45 -60 0 -14 9 -39 19
-56 12 -20 16 -35 10 -41 -6 -6 -6 -20 0 -36 8 -20 7 -27 -2 -27 -7 0 -6 -4 3
-9 8 -5 32 -45 53 -88 l39 -78 261 0 c260 0 342 -4 487 -25 266 -38 569 -126
820 -239 126 -57 341 -168 350 -181 3 -4 21 -15 40 -25 19 -10 37 -21 40 -24
3 -3 48 -35 100 -70 52 -36 97 -67 100 -70 3 -4 23 -19 45 -36 22 -16 54 -41
70 -56 17 -15 71 -63 121 -107 83 -74 175 -172 279 -297 22 -26 48 -56 58 -66
9 -11 14 -19 10 -19 -5 0 -1 -6 8 -13 9 -7 56 -71 103 -142 47 -72 90 -134 94
-140 4 -5 15 -23 24 -40 8 -16 40 -77 71 -135 179 -337 310 -774 344 -1146 16
-181 9 -613 -13 -749 -3 -16 -7 -43 -10 -60 -46 -283 -131 -568 -243 -816
-111 -244 -290 -532 -435 -700 -80 -92 -78 -89 -56 -89 19 0 115 90 176 166
18 21 53 62 78 89 25 28 48 58 52 68 3 9 9 17 14 17 5 0 24 21 41 48 18 26 36
49 39 52 13 9 179 257 226 336 161 271 265 500 368 805 142 423 206 823 206
1294 0 371 -36 661 -125 1015 -25 100 -122 402 -150 465 -7 17 -20 46 -29 67
-9 20 -16 39 -16 42 0 6 -93 208 -109 236 -4 8 -29 55 -55 103 -26 49 -59 107
-74 130 -14 23 -34 56 -44 74 -18 33 -187 284 -197 293 -4 3 -19 23 -35 45
-17 22 -38 49 -47 60 -10 11 -46 54 -81 95 -34 41 -74 88 -88 104 -51 59 -196
200 -347 336 -57 51 -64 56 -153 125 -36 28 -66 53 -68 58 -2 4 -10 7 -17 7
-7 0 -15 3 -17 8 -7 16 -251 182 -268 182 -5 0 -10 5 -10 10 0 6 -5 10 -10 10
-6 0 -35 15 -64 34 -29 19 -109 62 -177 96 -68 34 -146 73 -172 86 -206 105
-651 246 -957 303 -196 37 -171 40 -294 -38 -61 -39 -114 -67 -118 -65 -5 3
-17 23 -28 44 l-20 39 -64 -32 c-36 -18 -65 -35 -65 -38 -1 -3 27 -50 62 -105
100 -155 114 -184 98 -194 -11 -6 -8 -9 10 -12 18 -2 40 -30 97 -123 117 -193
182 -303 182 -310 0 -4 6 -13 14 -21 8 -7 16 -19 18 -26 3 -8 33 5 86 36 45
26 82 50 82 53 0 4 -63 114 -75 131 -2 2 -19 -7 -39 -19 -20 -11 -42 -19 -50
-16 -16 6 -168 254 -173 282 -3 16 19 33 114 90 65 38 164 98 219 132 56 35
106 63 110 63 5 -1 47 -62 93 -138 46 -75 102 -166 124 -202 22 -36 57 -92 77
-125 21 -33 67 -108 104 -167 l66 -107 -19 -87 c-11 -47 -24 -91 -31 -98 -6
-6 -53 -36 -104 -66 -52 -30 -173 -103 -269 -163 -158 -97 -177 -106 -201 -97
-40 15 -51 12 -32 -8 15 -18 15 -20 -1 -34 -10 -8 -60 -41 -111 -72 -91 -55
-94 -56 -135 -46 -128 33 -155 56 -223 193 -31 61 -71 131 -90 156 -22 28 -34
55 -34 76 0 26 -6 35 -39 53 -48 27 -112 132 -166 272 -20 52 -39 101 -42 108
-3 6 2 12 10 12 8 0 17 -5 19 -12 3 -7 12 -9 23 -4 26 9 6 27 -35 31 -23 1
-36 10 -49 32 -10 16 -30 37 -44 46 -17 11 -29 30 -33 52 -4 21 -16 42 -29 51
-12 8 -25 29 -29 46 -9 43 -61 132 -113 190 -23 27 -43 53 -43 58 0 5 -12 34
-26 64 -22 47 -24 59 -15 93 19 67 20 66 -54 56z"/>
<path d="M4040 7459 c0 -3 16 -52 35 -108 62 -186 88 -291 74 -307 -10 -12 -9
-16 9 -20 15 -5 25 -22 38 -70 9 -35 22 -64 28 -63 6 0 41 8 78 18 l68 17 -33
55 c-18 30 -78 126 -133 214 -56 88 -115 185 -132 215 -17 30 -32 53 -32 49z"/>
<path d="M4990 6654 c-74 -48 -136 -87 -137 -88 -1 -1 21 -87 48 -191 28 -105
54 -204 58 -221 5 -18 11 -37 15 -43 4 -6 4 -11 -1 -11 -4 0 -36 47 -71 103
-156 252 -174 278 -188 273 -8 -3 -66 -39 -130 -81 l-115 -75 21 -29 c11 -17
27 -48 35 -71 8 -23 33 -60 55 -81 25 -25 40 -48 40 -64 0 -14 8 -29 20 -35
11 -6 20 -19 20 -29 0 -10 11 -26 24 -34 16 -11 32 -39 46 -84 32 -97 69 -163
92 -163 10 0 21 -8 24 -17 3 -10 27 -60 52 -111 43 -84 50 -93 84 -102 35 -10
41 -7 155 66 135 86 127 69 92 217 -12 48 -27 94 -35 101 -7 7 -11 22 -8 32 2
11 -9 70 -24 132 -16 61 -28 112 -26 112 2 0 21 -30 43 -67 21 -38 52 -86 68
-108 16 -22 52 -78 81 -125 84 -138 68 -132 164 -69 46 30 85 57 86 62 2 4 8
7 14 7 5 0 23 9 39 21 l29 20 -26 40 c-33 53 -47 88 -49 121 -1 15 -4 31 -8
34 -4 4 -7 16 -7 26 0 10 -11 24 -25 30 -21 10 -74 88 -59 88 8 0 -45 68 -136
173 -41 48 -86 109 -100 135 -20 38 -120 193 -124 192 -1 0 -62 -39 -136 -86z"/>
<path d="M1183 6711 c-6 -10 -32 -57 -58 -105 -45 -83 -46 -87 -31 -111 16
-24 16 -25 -10 -25 -23 0 -25 -2 -13 -16 8 -10 22 -14 40 -10 24 5 34 -3 80
-57 29 -34 71 -82 94 -107 48 -54 110 -128 129 -155 8 -11 18 -17 22 -13 4 5
-1 17 -11 28 -18 20 -18 21 1 35 18 14 18 14 -4 15 -12 0 -25 8 -28 18 -4 9
-36 91 -72 182 -36 91 -79 204 -96 252 -27 74 -33 84 -43 69z"/>
<path d="M4189 6147 l-126 -81 155 -245 c221 -350 240 -384 235 -399 -3 -7 -8
-11 -10 -8 -3 3 -31 -13 -63 -34 -44 -30 -60 -36 -68 -27 -5 7 -92 143 -192
302 -100 160 -188 296 -195 303 -13 14 -4 19 -198 -105 l-68 -44 19 -27 c11
-15 22 -37 26 -49 4 -13 23 -42 43 -65 20 -24 42 -58 50 -75 7 -18 18 -33 23
-33 6 0 10 -6 10 -13 0 -6 16 -34 35 -61 19 -27 39 -65 46 -85 21 -65 62 -132
91 -147 19 -10 28 -22 28 -39 0 -13 5 -27 10 -30 6 -4 26 -37 45 -74 37 -74
68 -101 124 -108 31 -4 48 3 113 43 43 27 78 53 78 58 0 4 -7 6 -14 3 -10 -4
-13 -1 -9 9 7 18 67 44 97 42 23 -2 86 36 86 53 0 5 7 9 16 9 9 0 61 28 114
62 87 55 100 67 111 103 7 22 13 43 13 46 1 4 -15 33 -34 64 -19 32 -35 67
-36 79 -3 45 -17 86 -30 86 -16 0 -64 61 -64 82 0 8 -32 52 -70 99 -69 83 -85
105 -205 293 l-60 95 -126 -82z"/>
<path d="M865 6038 c-2 -7 -16 -46 -30 -86 -25 -71 -35 -103 -95 -327 -32
-123 -83 -402 -102 -570 -17 -147 -17 -695 0 -835 73 -592 229 -1082 494
-1558 35 -62 67 -122 73 -133 5 -10 13 -19 17 -19 5 0 8 -5 8 -11 0 -11 164
-254 187 -277 7 -7 13 -17 13 -21 0 -6 46 -64 108 -136 10 -11 38 -45 62 -75
24 -30 72 -83 107 -117 34 -35 60 -63 58 -63 -3 0 16 -19 42 -42 25 -24 72
-68 103 -98 72 -70 158 -145 189 -167 14 -9 32 -24 41 -32 9 -9 29 -25 44 -36
16 -11 37 -28 48 -38 10 -9 22 -17 27 -17 5 0 11 -4 13 -8 4 -11 257 -182 269
-182 5 0 9 -3 9 -7 0 -5 19 -17 43 -28 23 -11 44 -23 47 -27 7 -9 178 -100
250 -134 30 -14 72 -34 93 -45 21 -11 91 -40 155 -65 64 -25 131 -51 147 -58
33 -15 335 -106 430 -130 157 -39 367 -75 530 -91 33 -3 100 -11 148 -17 85
-11 640 -6 732 7 22 3 76 10 120 16 44 6 98 16 120 24 22 7 69 18 105 25 97
17 262 58 375 93 55 17 106 32 113 33 38 7 401 154 408 165 2 5 -20 -3 -50
-16 -86 -38 -311 -111 -431 -140 -138 -33 -249 -52 -415 -71 -30 -4 -58 -12
-62 -18 -4 -6 -8 2 -8 17 0 16 -4 26 -10 22 -5 -3 -10 -2 -10 2 0 5 9 14 20
21 11 7 20 22 20 35 0 12 4 29 10 37 5 9 5 19 0 26 -7 7 -1 19 15 34 14 13 25
32 25 41 0 10 9 34 20 54 11 20 20 43 20 53 0 9 9 23 19 29 22 14 51 68 51 94
0 11 9 24 20 31 11 7 20 18 20 25 0 9 32 75 76 154 6 11 24 33 39 49 15 15 26
30 24 32 -6 7 37 84 54 97 10 7 22 24 27 37 5 13 16 24 24 24 7 0 17 8 20 18
11 29 32 62 60 91 14 15 26 30 26 34 0 4 22 30 50 59 27 29 50 57 50 61 0 24
125 167 145 167 7 0 22 11 35 25 13 14 29 25 36 25 7 0 14 6 17 13 3 8 10 5
22 -10 9 -13 25 -23 36 -23 11 0 30 -11 43 -25 13 -14 33 -25 45 -25 20 0 21
-4 21 -139 0 -92 4 -142 11 -147 8 -4 7 -9 -2 -16 -11 -7 -11 -11 -1 -15 9 -3
12 -52 12 -194 0 -119 4 -189 10 -189 6 0 10 -49 10 -127 1 -112 3 -131 20
-151 l20 -24 47 24 c128 66 185 99 342 204 40 27 80 54 89 59 8 6 23 17 31 25
9 9 45 35 79 59 65 46 68 51 52 67 -16 16 -9 170 8 166 6 -1 12 2 12 8 0 12
43 14 54 2 4 -4 11 -7 14 -8 18 -2 62 -24 62 -31 0 -5 -28 -34 -62 -67 -60
-56 -61 -57 -17 -28 26 17 59 46 74 64 15 18 30 32 31 31 11 -8 28 3 88 60 66
63 79 81 52 71 -16 -6 -56 24 -56 43 0 9 -15 13 -42 13 -27 0 -52 8 -68 20
-14 11 -30 20 -36 20 -7 0 -15 7 -18 16 -4 11 -13 14 -31 10 -32 -8 -60 22
-79 83 -12 41 -11 48 3 61 15 14 15 16 0 31 -13 13 -15 43 -15 195 1 137 4
178 14 176 6 -1 12 5 12 13 0 8 5 15 10 15 6 0 10 11 10 25 0 16 6 25 15 25
19 0 20 24 1 39 -7 6 -11 22 -9 36 3 14 -7 49 -25 87 l-31 63 0 380 c-1 211
-5 395 -10 413 -9 30 -7 35 20 60 17 15 45 29 62 32 39 6 46 41 9 47 -13 2
-32 8 -43 14 -16 8 -18 13 -8 25 6 8 23 14 36 14 19 0 24 4 19 16 -3 9 -6 25
-6 36 0 17 -4 19 -30 13 -22 -5 -32 -3 -36 9 -5 12 -11 10 -30 -13 -13 -16
-28 -40 -33 -55 -6 -14 -26 -34 -46 -43 -19 -9 -37 -25 -41 -35 -6 -19 -33
-25 -35 -8 -1 6 -3 24 -4 40 -1 17 -3 35 -4 40 -2 17 -30 11 -41 -9 -13 -25
-13 -316 0 -341 5 -10 12 -42 14 -72 4 -53 14 -65 27 -31 6 15 8 15 12 3 2 -8
10 -32 16 -52 7 -21 11 -60 10 -88 -2 -34 2 -54 11 -60 8 -5 10 -17 6 -36 -4
-16 -7 -37 -7 -46 1 -20 1 -46 -1 -85 0 -16 3 -38 7 -50 6 -18 4 -23 -11 -23
-9 0 -26 8 -37 18 -15 12 -21 14 -24 5 -6 -18 -33 -16 -33 2 0 29 -30 14 -50
-25 -26 -52 -27 -139 -2 -171 24 -28 52 -20 52 16 0 51 47 105 92 105 27 0 28
-1 15 -22 -8 -13 -20 -43 -27 -68 -7 -25 -16 -56 -20 -70 -5 -18 -14 -25 -31
-25 -16 0 -37 -14 -61 -41 -35 -38 -37 -43 -26 -72 15 -40 24 -40 65 0 27 27
34 29 48 18 24 -20 14 -53 -21 -68 -25 -12 -33 -25 -49 -75 -10 -34 -19 -75
-19 -92 -1 -27 -4 -30 -31 -30 l-30 0 -7 90 c-13 153 -15 246 -6 251 14 9 9
44 -7 50 -8 4 -22 1 -30 -6 -12 -10 -18 -10 -30 0 -23 19 -18 48 13 62 35 17
40 52 13 89 -14 19 -21 43 -21 73 0 47 -12 65 -33 48 -20 -15 -71 20 -83 58
-6 18 -21 37 -33 41 -24 9 -26 20 -9 37 8 8 8 15 1 24 -6 7 -14 31 -17 53 -29
172 -37 285 -22 285 25 1 41 21 44 57 12 153 13 201 1 238 -17 55 -25 62 -67
70 -21 3 -44 10 -52 15 -13 8 -11 12 8 25 12 9 22 22 22 29 0 8 11 17 25 20
35 9 33 42 -5 61 -16 8 -36 15 -45 15 -13 0 -15 19 -17 118 -3 180 4 224 37
230 32 6 56 33 49 55 -4 13 3 28 22 48 26 27 27 30 15 67 -10 30 -11 44 -2 61
7 12 9 26 6 31 -3 5 -2 18 4 28 6 12 6 33 0 61 -7 31 -6 47 2 57 8 10 9 55 4
156 -3 79 -6 179 -6 223 0 44 -5 90 -11 102 -9 17 -7 28 6 47 20 31 21 70 1
86 -21 17 -19 33 8 57 16 16 41 22 97 27 41 3 82 5 90 5 8 0 42 0 75 1 50 1
64 -3 80 -19 10 -12 26 -21 37 -21 22 0 22 -4 5 -33 -8 -13 -12 -41 -11 -67 2
-25 4 -52 5 -60 0 -8 -2 -33 -6 -55 -9 -45 -10 -122 -4 -145 3 -8 13 -41 24
-74 22 -70 14 -90 -36 -93 -19 -1 -40 -2 -46 -2 -17 -1 -16 -22 0 -45 13 -17
15 -17 47 2 39 24 59 19 34 -9 -13 -15 -18 -38 -19 -90 -1 -81 8 -98 55 -108
l35 -7 0 -89 c1 -76 5 -99 28 -149 15 -32 27 -65 27 -72 0 -8 10 -24 21 -35
16 -16 19 -26 12 -38 -5 -9 -8 -59 -7 -111 3 -113 0 -128 -33 -141 -31 -11
-25 -33 10 -37 18 -2 27 -10 29 -25 2 -12 4 52 5 142 1 90 5 166 10 170 5 3
12 14 16 23 4 11 12 15 22 12 18 -7 31 21 17 39 -5 6 -12 30 -15 52 -4 22 -9
52 -13 67 -5 21 -2 27 15 33 12 3 21 12 21 18 0 12 -40 57 -74 85 -22 18 -20
27 10 47 19 12 41 15 87 12 34 -2 70 -8 80 -12 9 -4 41 -5 70 -1 28 3 76 6
105 6 40 0 52 4 52 15 0 9 -6 18 -13 21 -8 3 -14 23 -15 49 -1 24 -6 55 -11
68 -7 17 -6 28 2 36 9 9 -35 12 -192 10 -188 -1 -206 0 -218 17 -7 10 -12 23
-9 30 2 6 0 129 -5 274 -9 258 -10 265 -35 308 -25 42 -28 44 -65 40 -26 -2
-40 1 -44 10 -4 10 -40 12 -177 8 -278 -7 -327 -16 -376 -69 -26 -28 -25 -7
-16 -404 l5 -203 -83 -1 c-313 -6 -395 -5 -411 3 -12 6 -23 5 -33 -3 -17 -14
-19 -65 -1 -72 9 -4 9 -8 -2 -15 -22 -15 7 -72 36 -72 13 0 23 -4 23 -10 0 -5
11 -10 25 -10 30 0 31 -7 6 -37 -17 -20 -31 -23 -132 -29 -63 -3 -118 -10
-124 -15 -5 -5 -21 -9 -35 -9 -35 0 -50 -17 -50 -57 0 -28 3 -33 24 -33 14 0
28 -4 31 -10 3 -5 35 -10 71 -10 56 0 65 -2 62 -17 -3 -14 -58 -53 -74 -52
-22 1 -44 -96 -24 -103 16 -5 -12 -56 -35 -62 -10 -3 -22 -1 -26 5 -3 6 -9 1
-12 -10 -6 -24 -47 -30 -47 -7 0 18 29 48 40 41 4 -3 4 10 0 27 -5 18 -15 54
-21 79 -7 25 -18 46 -25 46 -7 0 -10 -5 -8 -12 3 -6 -7 -22 -20 -34 -21 -20
-28 -22 -41 -11 -8 7 -15 23 -15 36 0 17 -6 24 -20 24 -15 0 -20 -7 -20 -27 0
-37 -50 -133 -70 -133 -19 0 -55 -76 -52 -112 2 -33 -21 -40 -62 -20 -15 7
-25 9 -22 3 4 -6 1 -11 -6 -11 -20 0 -59 30 -53 41 4 5 -7 6 -23 3 -31 -6 -97
21 -121 50 -8 9 -18 16 -24 16 -6 0 2 -14 19 -31 35 -37 114 -79 147 -79 14 0
30 -7 37 -15 15 -18 134 -75 156 -75 9 0 32 -9 51 -21 20 -13 42 -19 56 -15
22 5 222 203 242 239 10 19 90 51 105 42 12 -8 -28 -109 -62 -154 -10 -13 -18
-32 -18 -42 0 -10 -12 -26 -27 -36 -41 -25 -160 -148 -178 -183 -15 -28 -19
-30 -74 -30 -38 0 -77 -8 -108 -21 -37 -16 -59 -19 -98 -14 -27 3 -82 8 -122
11 -69 5 -72 5 -89 -21 -16 -24 -16 -29 -1 -61 9 -19 23 -34 30 -34 7 0 37 16
67 35 45 29 64 35 107 35 29 0 53 -3 53 -8 0 -15 -32 -52 -45 -52 -8 0 -31
-11 -51 -25 -20 -14 -50 -25 -65 -25 -44 0 -66 -28 -62 -81 5 -85 31 -213 53
-264 7 -16 17 -52 22 -80 13 -78 15 -88 23 -123 4 -18 12 -35 16 -38 5 -3 9
-16 9 -30 0 -14 9 -42 19 -63 27 -53 19 -136 -22 -216 -31 -62 -39 -83 -34
-93 7 -10 -43 -62 -64 -66 -39 -8 -76 -19 -94 -27 -12 -6 -74 -8 -145 -6 -229
8 -279 27 -293 113 -4 27 -21 76 -38 109 -16 33 -29 74 -29 91 0 27 -23 87
-59 154 -4 8 -13 25 -19 37 -7 13 -12 71 -13 135 -1 164 -36 361 -71 402 -4 6
-8 31 -8 56 0 25 -6 52 -12 58 -10 10 -13 62 -13 195 1 168 2 185 23 224 12
23 22 50 22 58 0 21 66 142 93 173 11 12 32 22 45 22 14 0 39 9 57 20 27 16
37 18 66 9 50 -16 170 -79 197 -102 20 -19 83 -46 106 -47 5 0 1 9 -9 20 -12
13 -25 18 -38 14 -18 -6 -67 29 -67 48 0 5 14 21 30 35 17 13 30 30 30 37 0 7
12 18 28 25 80 37 97 49 114 79 18 32 16 58 -3 47 -22 -14 -6 19 21 42 17 13
30 29 30 34 0 6 9 20 20 32 17 18 18 23 7 32 -19 14 -60 141 -54 166 6 23 -8
26 -17 3 -6 -15 -8 -15 -26 1 -11 10 -22 25 -25 35 -6 19 -52 47 -61 37 -4 -3
3 -18 15 -33 27 -34 27 -62 -1 -91 -23 -25 -13 -30 26 -11 22 9 29 8 46 -7 26
-24 26 -76 0 -100 -13 -12 -20 -31 -20 -57 0 -45 -21 -59 -49 -34 -24 22 -28
21 -70 -14 -20 -17 -42 -35 -48 -41 -8 -6 -13 -34 -13 -72 0 -36 -6 -71 -13
-81 -12 -17 -16 -17 -58 -3 -60 21 -137 65 -148 85 -5 10 -5 26 0 37 4 11 8
59 8 106 1 47 4 89 7 92 18 17 84 -61 84 -99 0 -8 6 -14 13 -14 46 0 42 81 -6
122 -31 25 -32 30 -38 130 -4 56 -10 115 -14 129 -6 22 0 33 33 68 35 36 44
41 85 41 25 0 48 -4 51 -9 6 -10 97 -41 120 -41 8 0 24 -13 35 -29 12 -16 34
-34 50 -39 l29 -10 -15 35 c-25 61 -42 80 -113 129 -38 26 -71 53 -74 60 -4
10 -24 14 -63 14 -94 0 -201 -63 -234 -137 -7 -18 -17 -33 -21 -33 -5 0 -8 -9
-8 -19 0 -11 -4 -22 -10 -26 -5 -3 -6 -13 -3 -21 3 -9 0 -20 -7 -24 -11 -7
-11 -11 -1 -24 7 -8 11 -28 10 -43 -2 -15 1 -34 6 -42 5 -10 4 -16 -3 -19 -8
-2 -5 -14 9 -34 17 -23 19 -32 9 -38 -9 -5 -9 -9 -1 -14 6 -4 11 -23 11 -42 0
-20 5 -34 12 -34 9 0 9 -3 0 -12 -7 -7 -12 -34 -12 -60 0 -26 -4 -48 -10 -48
-5 0 -10 -9 -10 -19 0 -11 -4 -22 -10 -26 -5 -3 -7 -12 -4 -20 4 -9 -12 -33
-40 -61 -25 -25 -46 -51 -46 -57 0 -7 -9 -18 -20 -25 -11 -7 -20 -23 -20 -36
0 -14 -4 -28 -10 -31 -5 -3 -17 -23 -27 -43 -9 -20 -21 -40 -27 -44 -5 -3 -11
-31 -14 -62 -2 -31 -8 -56 -13 -56 -12 0 -12 -267 0 -274 5 -3 12 -51 16 -106
4 -55 11 -103 16 -106 5 -3 9 -25 9 -50 0 -24 3 -44 8 -44 11 0 34 -58 28 -69
-4 -5 -2 -12 4 -16 5 -3 10 -24 10 -45 0 -21 5 -42 10 -45 15 -9 13 -142 -2
-148 -10 -4 -9 -8 2 -16 12 -8 13 -14 3 -30 -10 -15 -10 -21 0 -25 9 -5 9 -7
0 -12 -8 -3 -2 -22 18 -57 16 -29 32 -60 35 -69 4 -10 10 -18 15 -18 5 0 9 -9
9 -20 0 -11 5 -20 10 -20 6 0 10 -20 10 -45 0 -26 5 -45 11 -45 6 0 9 -6 6
-14 -3 -8 -3 -16 1 -18 15 -7 50 -87 40 -90 -7 -3 -8 -10 -1 -23 29 -54 35
-75 30 -95 -4 -14 1 -25 14 -33 11 -7 19 -23 19 -39 0 -16 5 -28 10 -28 6 0
10 -9 10 -20 0 -26 17 -56 56 -100 18 -19 35 -46 39 -60 4 -13 21 -37 36 -51
16 -15 29 -31 29 -36 0 -4 11 -30 25 -57 14 -27 25 -62 25 -78 0 -15 5 -28 10
-28 15 0 13 -97 -2 -103 -10 -3 -10 -7 1 -20 9 -11 10 -17 2 -17 -6 0 -11 -16
-11 -35 0 -19 -4 -35 -10 -35 -5 0 -10 -11 -10 -24 0 -14 -4 -28 -10 -31 -5
-3 -10 -22 -10 -41 0 -19 -4 -34 -8 -34 -5 0 -7 -13 -4 -29 2 -16 -1 -32 -7
-35 -6 -4 -11 -18 -11 -31 0 -13 -6 -26 -12 -28 -10 -4 -9 -8 2 -17 11 -9 12
-13 2 -17 -6 -2 -12 -21 -12 -42 0 -20 -4 -41 -9 -46 -8 -9 -17 -55 -23 -127
-2 -14 -6 -30 -10 -34 -5 -4 -8 -18 -8 -31 0 -12 -4 -23 -9 -23 -8 0 -22 -30
-27 -60 -5 -32 -17 -60 -25 -60 -5 0 -9 -12 -9 -27 -1 -41 -39 -66 -79 -52
-17 6 -38 9 -45 6 -8 -3 -17 -1 -20 6 -2 7 -5 4 -5 -6 -1 -10 -8 -31 -16 -46
-8 -16 -11 -32 -7 -35 3 -4 7 -17 8 -30 1 -22 -3 -23 -40 -20 -87 9 -376 103
-547 179 -115 51 -344 169 -359 185 -3 3 -43 30 -90 59 -80 50 -262 184 -300
220 -9 9 -56 50 -105 91 -77 65 -174 167 -293 306 -293 342 -539 832 -648
1292 -62 262 -79 418 -79 742 0 313 15 458 71 700 48 205 49 206 80 122 10
-26 33 -61 51 -78 18 -17 36 -45 39 -62 3 -17 12 -33 20 -36 8 -3 14 -12 14
-21 0 -9 11 -26 24 -38 13 -12 32 -47 41 -77 22 -72 62 -140 81 -140 8 0 24 5
35 10 24 14 27 -7 2 -25 -9 -7 -13 -18 -9 -26 50 -98 94 -164 111 -168 11 -2
24 -9 28 -17 5 -9 25 -14 51 -14 38 0 63 13 202 103 88 56 204 130 259 164 95
59 102 65 119 113 17 48 17 51 -1 80 -10 16 -38 61 -62 100 -26 42 -48 67 -55
63 -92 -51 -216 -139 -211 -150 3 -7 7 -19 10 -25 4 -11 -77 -67 -110 -76 -11
-3 -121 164 -165 251 -14 26 -40 64 -58 85 -46 51 -41 78 22 119 49 32 50 32
64 12 9 -12 20 -18 30 -14 34 13 212 131 212 140 0 6 -27 51 -59 101 -61 94
-74 104 -147 104 -13 0 -139 -74 -287 -168 l-264 -169 44 116 c53 143 124 302
179 401 l41 75 -19 25 c-11 14 -38 45 -61 70 -23 25 -76 83 -117 130 -41 47
-91 103 -111 125 -83 91 -93 106 -78 116 11 8 9 9 -9 7 -15 -2 -30 7 -47 27
l-25 30 15 -35 c60 -142 201 -510 195 -510 -5 0 -6 -9 -3 -20 3 -11 9 -20 14
-20 11 0 39 -66 39 -94 0 -17 -38 -44 -182 -131 -100 -60 -189 -111 -198 -113
-12 -2 -42 25 -86 74 -147 165 -168 185 -186 181 -10 -3 -18 -1 -18 4 0 4 -25
25 -55 46 -40 28 -54 44 -55 63 0 17 -27 51 -98 120 -109 106 -186 193 -256
289 -42 57 -45 65 -30 76 23 16 9 35 -26 35 -24 0 -36 10 -70 59 -44 66 -58
79 -65 59z m5335 -1484 c0 -3 -11 -19 -25 -36 -14 -17 -25 -42 -25 -59 0 -23
-6 -32 -27 -40 -16 -6 -39 -21 -53 -33 -25 -23 -131 -66 -163 -66 -12 0 -17 9
-17 32 0 26 11 44 52 85 57 58 71 63 90 33 20 -31 40 -24 98 35 50 51 70 65
70 49z m-606 -323 c6 -8 -7 -52 -31 -110 -13 -32 -13 -37 6 -62 12 -16 21 -32
21 -36 0 -4 -17 -24 -37 -45 -45 -46 -73 -50 -73 -10 0 16 -7 37 -15 48 -17
22 -20 70 -5 79 6 4 9 23 8 43 -2 29 1 37 15 40 15 3 18 0 12 -18 -6 -20 8
-50 25 -50 10 0 30 47 30 71 0 40 30 74 44 50z m806 -80 c0 -22 5 -43 10 -46
6 -4 10 -70 10 -166 0 -87 4 -159 8 -159 11 0 12 -39 1 -45 -12 -8 -12 -65 1
-65 27 0 -10 -50 -39 -53 -12 -1 -21 -4 -21 -8 0 -4 -26 -9 -57 -12 -32 -3
-94 -14 -138 -26 -43 -11 -106 -21 -140 -22 -33 -1 -79 -10 -103 -21 -24 -10
-59 -18 -78 -18 -20 0 -43 -4 -52 -9 -9 -5 -41 -11 -70 -13 -65 -6 -75 2 -97
80 -9 31 -26 67 -37 79 -22 24 -18 53 7 53 8 0 15 6 15 13 0 8 9 22 21 33 18
17 79 100 79 108 0 2 20 26 46 52 25 27 53 65 64 84 10 19 30 46 44 59 14 14
26 28 26 32 0 4 13 22 29 39 26 29 35 33 97 36 222 12 280 17 289 25 5 5 26 9
47 9 38 0 38 0 38 -39z m-70 -797 c0 -17 -7 -37 -15 -44 -8 -7 -15 -16 -15
-21 0 -8 -27 -43 -58 -75 -22 -22 -70 -16 -136 17 -33 17 -66 35 -72 40 -6 5
-33 21 -60 35 -88 47 -82 64 21 64 41 0 76 4 79 8 2 4 61 8 130 8 l126 0 0
-32z m-465 -14 c3 -5 28 -21 55 -36 28 -15 50 -31 50 -36 0 -4 5 -8 11 -8 19
0 83 -33 100 -52 9 -10 24 -18 33 -18 9 0 26 -5 39 -12 49 -25 56 -27 62 -18
3 6 13 10 22 10 9 0 27 10 40 22 l23 21 0 -26 c0 -14 -9 -42 -20 -62 -12 -21
-20 -54 -20 -83 0 -66 -9 -92 -31 -92 -19 0 -28 4 -76 28 -13 7 -31 12 -42 12
-10 0 -30 9 -44 20 -14 11 -29 20 -34 19 -20 -3 -43 2 -55 14 -7 6 -24 13 -38
15 -14 1 -26 7 -28 12 -2 6 -17 10 -33 10 -21 0 -32 7 -43 29 -36 68 -67 235
-39 207 3 -3 12 3 20 14 15 21 38 26 48 10z m49 -319 c5 -8 25 -13 91 -26 39
-7 65 -17 65 -26 0 -5 9 -9 20 -9 11 0 29 -4 40 -10 11 -5 29 -14 40 -20 11
-5 27 -10 36 -10 9 0 22 -7 28 -15 6 -8 21 -16 33 -18 12 -2 26 -6 29 -10 4
-4 32 -7 63 -7 47 -1 59 -4 74 -25 12 -16 14 -26 6 -31 -8 -4 -7 -9 2 -15 12
-8 12 -10 0 -18 -9 -6 -10 -11 -2 -15 12 -8 15 -148 4 -160 -5 -4 -8 -11 -8
-14 0 -14 -111 -109 -142 -121 -17 -7 -41 -26 -54 -42 -12 -16 -28 -29 -35
-29 -7 0 -21 -10 -31 -23 -24 -31 -73 -40 -111 -21 -17 8 -33 21 -36 29 -3 9
-19 15 -41 15 l-35 0 0 -48 c0 -39 5 -53 25 -72 14 -13 25 -29 25 -35 0 -6
-11 -22 -25 -35 -14 -13 -25 -29 -25 -37 0 -7 -4 -13 -10 -13 -5 0 -10 -16
-10 -35 0 -19 -4 -35 -10 -35 -5 0 -10 -8 -10 -18 0 -10 -16 -33 -35 -52 -19
-19 -35 -39 -35 -45 0 -6 -14 -24 -31 -41 -17 -16 -35 -38 -40 -49 -17 -37
-34 -60 -86 -114 -29 -29 -53 -60 -53 -68 0 -7 -7 -16 -15 -19 -8 -4 -15 -15
-15 -25 0 -10 -4 -19 -10 -19 -5 0 -10 -6 -10 -13 0 -8 -9 -22 -19 -31 -11
-10 -23 -31 -26 -46 -3 -15 -18 -38 -32 -51 -26 -24 -47 -65 -45 -85 1 -5 -7
-20 -18 -32 -11 -12 -20 -30 -20 -41 0 -11 -5 -23 -11 -27 -6 -3 -9 -17 -6
-30 2 -14 1 -27 -3 -29 -5 -3 -8 -20 -8 -39 0 -18 -5 -43 -11 -54 -6 -11 -11
-30 -11 -41 0 -30 -18 -26 -26 7 -4 15 -13 36 -20 47 -7 11 -15 56 -18 100 -3
44 -8 90 -12 103 -5 16 1 29 20 49 29 29 33 43 11 43 -12 0 -15 13 -15 55 0
40 4 55 14 55 23 0 27 29 6 50 -25 25 -26 57 -2 83 9 11 12 17 5 13 -17 -10
-24 29 -43 234 -5 58 -12 119 -15 135 -3 17 -9 116 -14 220 -8 159 -7 192 5
201 8 6 14 18 14 26 0 8 9 23 20 33 22 20 27 46 8 43 -9 -2 -13 11 -13 40 0
23 3 42 7 42 4 1 22 15 41 33 18 18 55 50 81 72 27 22 59 57 72 78 24 36 50
47 70 27 5 -5 38 -13 72 -16 55 -6 65 -4 94 18 18 13 50 32 70 41 20 10 46 31
58 47 21 30 44 38 54 21z"/>
<path d="M3434 5664 c-49 -31 -104 -66 -122 -77 -21 -13 -32 -26 -29 -36 2 -9
48 -83 101 -165 53 -81 96 -150 94 -151 -22 -20 -132 -83 -138 -80 -4 3 -29
40 -56 82 -26 43 -56 84 -66 91 -10 7 -18 21 -18 30 -1 22 -25 54 -34 45 -4
-4 -5 -1 -2 7 3 8 -3 26 -13 39 l-18 23 -129 -81 c-71 -45 -129 -85 -128 -89
1 -20 68 -144 84 -155 19 -13 60 -84 60 -103 0 -7 7 -14 15 -18 8 -3 15 -11
15 -18 0 -6 11 -23 24 -37 14 -15 41 -64 60 -110 42 -96 69 -137 96 -146 11
-4 20 -15 20 -26 0 -11 11 -35 25 -53 13 -17 35 -57 49 -87 18 -41 32 -59 55
-68 29 -13 35 -10 156 65 69 44 125 84 125 89 0 6 -39 71 -86 145 -48 74 -88
140 -91 147 -4 10 86 76 122 90 7 2 52 -57 106 -141 52 -80 98 -146 103 -146
11 0 246 151 246 158 0 3 -13 26 -30 51 -36 57 -63 121 -51 121 14 0 -26 71
-50 88 -11 8 -29 32 -39 53 -9 22 -52 85 -96 140 -43 56 -109 147 -145 203
-36 55 -71 100 -77 99 -6 -2 -9 3 -6 10 2 7 -4 21 -15 31 -11 10 -18 23 -15
27 12 20 -18 6 -102 -47z"/>
<path d="M4781 4749 c-21 -28 -21 -32 -7 -53 13 -21 13 -26 -1 -45 -13 -20
-13 -24 1 -46 31 -47 52 -49 92 -12 41 38 40 51 -7 61 -33 6 -59 22 -59 36 0
4 12 10 28 13 15 4 34 11 42 17 13 9 11 14 -13 35 -36 32 -48 31 -76 -6z"/>
</g>
</svg>
